<svg width="1080" height="660" viewBox="0 0 224.101 72.201" xmlns="http://www.w3.org/2000/svg"><g id="svgGroup" stroke-linecap="round" fill-rule="evenodd" font-size="9pt" stroke="#000" stroke-width="0.25mm" fill="#000" style="stroke:#000;stroke-width:0.25mm;fill:#000"><path d="M 118.801 52 L 118.801 17.8 L 129.401 17.8 L 129.401 49.3 A 33.021 33.021 0 0 0 129.598 53.049 Q 130.043 56.925 131.486 59.282 A 8.792 8.792 0 0 0 131.901 59.9 Q 134.401 63.3 139.501 63.3 A 14.401 14.401 0 0 0 143.34 62.816 A 10.398 10.398 0 0 0 148.551 59.55 Q 151.301 56.377 151.724 51.02 A 25.669 25.669 0 0 0 151.801 49 L 151.801 17.8 L 162.401 17.8 L 162.401 71 L 152.501 71 L 152.301 57.1 L 153.801 57.7 A 22.699 22.699 0 0 1 152.234 62.673 A 16.051 16.051 0 0 1 147.901 68.45 A 15.792 15.792 0 0 1 140.875 71.757 A 22.474 22.474 0 0 1 136.301 72.2 A 19.326 19.326 0 0 1 130.546 71.384 A 15.245 15.245 0 0 1 123.551 66.85 A 17.775 17.775 0 0 1 119.784 59.787 Q 119.016 57.081 118.848 53.85 A 35.611 35.611 0 0 1 118.801 52 Z M 184.801 71 L 172.801 71 L 192.101 43.8 L 173.601 17.8 L 185.401 17.8 L 198.501 36.9 L 211.201 17.8 L 223.301 17.8 L 205.001 44 L 224.101 71 L 212.301 71 L 198.601 50.7 L 184.801 71 Z M 49.201 44.8 L 49.201 47.5 L 11.001 47.5 A 27.53 27.53 0 0 0 11.578 51.994 Q 12.098 54.362 13.053 56.226 A 12.439 12.439 0 0 0 15.151 59.2 A 12.438 12.438 0 0 0 22.087 62.825 A 17.947 17.947 0 0 0 25.301 63.1 A 16.542 16.542 0 0 0 28.792 62.751 A 11.567 11.567 0 0 0 33.101 60.9 Q 36.201 58.7 37.401 55 L 48.401 55.7 Q 46.301 63.1 40.151 67.65 A 23.03 23.03 0 0 1 29.562 71.898 A 30.475 30.475 0 0 1 25.201 72.2 A 30.056 30.056 0 0 1 18.573 71.502 A 22.918 22.918 0 0 1 11.751 68.8 A 22.289 22.289 0 0 1 3.293 59.588 A 26.86 26.86 0 0 1 3.051 59.1 A 29.864 29.864 0 0 1 0.504 50.878 A 39.975 39.975 0 0 1 0.001 44.4 A 39.07 39.07 0 0 1 0.649 37.113 A 29.057 29.057 0 0 1 3.051 29.75 A 23.507 23.507 0 0 1 8.591 22.354 A 22.444 22.444 0 0 1 11.701 20.05 A 23.056 23.056 0 0 1 20.564 16.904 A 29.961 29.961 0 0 1 24.901 16.6 A 26.261 26.261 0 0 1 32.071 17.545 A 22.166 22.166 0 0 1 37.601 19.95 A 21.963 21.963 0 0 1 45.35 28.071 A 26.94 26.94 0 0 1 46.151 29.6 Q 49.016 35.519 49.189 43.732 A 50.583 50.583 0 0 1 49.201 44.8 Z M 95.101 25.3 L 95.101 0 L 105.701 0 L 105.701 71 L 95.801 71 L 95.501 63 A 15.826 15.826 0 0 1 88.885 69.731 A 19.128 19.128 0 0 1 88.851 69.75 A 19.871 19.871 0 0 1 80.86 72.114 A 24.222 24.222 0 0 1 78.801 72.2 A 22.903 22.903 0 0 1 72.299 71.31 A 19.272 19.272 0 0 1 66.951 68.8 Q 61.901 65.4 59.251 59.15 Q 56.601 52.9 56.601 44.4 A 45.149 45.149 0 0 1 57.117 37.393 Q 57.738 33.446 59.103 30.12 A 27.732 27.732 0 0 1 59.301 29.65 Q 62.001 23.4 67.001 20 A 19.611 19.611 0 0 1 75.912 16.763 A 25.04 25.04 0 0 1 78.801 16.6 A 22.524 22.524 0 0 1 84.306 17.249 A 18.762 18.762 0 0 1 88.601 18.9 Q 92.901 21.2 95.101 25.3 Z M 81.601 63 A 13.972 13.972 0 0 0 85.201 62.556 A 10.955 10.955 0 0 0 88.901 60.8 A 12.331 12.331 0 0 0 92.104 57.269 A 16.987 16.987 0 0 0 93.501 54.4 A 23.063 23.063 0 0 0 94.675 49.956 Q 95.021 47.872 95.086 45.507 A 40.401 40.401 0 0 0 95.101 44.4 Q 95.101 39.543 94.052 35.898 A 19.785 19.785 0 0 0 93.501 34.25 A 16.272 16.272 0 0 0 91.901 31.104 A 11.947 11.947 0 0 0 88.901 27.95 Q 85.901 25.8 81.601 25.8 A 13.306 13.306 0 0 0 76.539 26.731 Q 73.576 27.937 71.434 30.706 A 15.292 15.292 0 0 0 71.401 30.75 A 16.905 16.905 0 0 0 68.642 36.32 Q 67.934 38.717 67.707 41.588 A 35.752 35.752 0 0 0 67.601 44.4 Q 67.601 53 71.401 58 A 12.456 12.456 0 0 0 75.93 61.789 Q 78.451 63 81.601 63 Z M 11.001 39.5 L 38.001 39.5 Q 37.668 34.778 35.986 31.692 A 10.95 10.95 0 0 0 33.951 29 A 12.112 12.112 0 0 0 26.653 25.692 A 16.362 16.362 0 0 0 24.901 25.6 A 14.958 14.958 0 0 0 20.456 26.232 A 12.061 12.061 0 0 0 15.551 29.15 A 13.738 13.738 0 0 0 12.535 33.634 Q 11.44 36.18 11.001 39.5 Z" vector-effect="non-scaling-stroke"/></g></svg>